<svg xmlns="http://www.w3.org/2000/svg" width="187.198" height="201.141" viewBox="0 0 187.198 201.141">
  <path id="_11" data-name="11" d="M73,165.809c11.438,0,20-9.552,20-21H52A21.2,21.2,0,0,0,73,165.809Zm69-48c-6.257-6.723-18-16.871-18-50,0-25.163-17.21-46.058-41-51v-6c0-5.722-4.281-11-10-11a11.488,11.488,0,0,0-11,11v6c-23.79,4.942-41,25.837-41,51,0,33.129-11.743,43.277-18,50a10.306,10.306,0,0,0-3,7,9.736,9.736,0,0,0,10,10H135a9.734,9.734,0,0,0,10-10A10.3,10.3,0,0,0,142,117.809Z" transform="translate(0.056 42.577) rotate(-17)" fill="rgba(0,0,0,0.5)"/>
</svg>
